<mxfile host="app.diagrams.net" modified="2023-12-01T18:18:12.277Z" agent="Mozilla/5.0 (Windows NT 10.0; Win64; x64) AppleWebKit/537.36 (KHTML, like Gecko) Chrome/119.0.0.0 Safari/537.36" etag="7aymxZ4kEYGgoIYvbIiJ" version="22.1.5" type="github">
  <diagram name="Page-1" id="c7558073-3199-34d8-9f00-42111426c3f3">
    <mxGraphModel dx="1821" dy="984" grid="1" gridSize="10" guides="1" tooltips="1" connect="1" arrows="1" fold="1" page="1" pageScale="1" pageWidth="826" pageHeight="1169" background="none" math="0" shadow="0">
      <root>
        <mxCell id="0" />
        <mxCell id="1" parent="0" />
        <mxCell id="BmP0dDk1l4rGryoXVfla-103" value="" style="ellipse;whiteSpace=wrap;html=1;aspect=fixed;" vertex="1" parent="1">
          <mxGeometry x="290" y="350" width="260" height="260" as="geometry" />
        </mxCell>
        <mxCell id="BmP0dDk1l4rGryoXVfla-104" value="&lt;font style=&quot;font-size: 30px;&quot;&gt;Simi Oyin&lt;/font&gt;" style="text;html=1;strokeColor=none;fillColor=none;align=center;verticalAlign=middle;whiteSpace=wrap;rounded=0;" vertex="1" parent="1">
          <mxGeometry x="350" y="350" width="140" height="95" as="geometry" />
        </mxCell>
        <mxCell id="BmP0dDk1l4rGryoXVfla-105" value="&lt;font style=&quot;font-size: 30px;&quot;&gt;Epicodus Student&lt;/font&gt;" style="text;html=1;strokeColor=none;fillColor=none;align=center;verticalAlign=middle;whiteSpace=wrap;rounded=0;" vertex="1" parent="1">
          <mxGeometry x="390" y="460" width="60" height="30" as="geometry" />
        </mxCell>
        <mxCell id="BmP0dDk1l4rGryoXVfla-106" value="&lt;font style=&quot;font-size: 26px;&quot;&gt;Streamer/Content Creator&lt;br&gt;&lt;br&gt;&lt;/font&gt;" style="text;html=1;strokeColor=none;fillColor=none;align=center;verticalAlign=middle;whiteSpace=wrap;rounded=0;" vertex="1" parent="1">
          <mxGeometry x="340" y="535" width="160" height="75" as="geometry" />
        </mxCell>
      </root>
    </mxGraphModel>
  </diagram>
</mxfile>
